<svg width="1000" height="700" viewBox="0 0 1000 700" fill="none" xmlns="http://www.w3.org/2000/svg">
<rect width="1000" height="700" fill="#03A9F4"/>
<path opacity="0.4" d="M837.685 644.096C837.685 645.174 837.492 646.094 837.105 646.855C836.719 647.617 836.244 648.197 835.682 648.596H835.752C836.443 648.596 837.07 648.443 837.633 648.139C838.207 647.822 838.723 647.424 839.18 646.943C839.637 646.451 840.047 645.906 840.41 645.309C840.773 644.711 841.096 644.131 841.377 643.568C841.436 643.439 841.518 643.34 841.623 643.27C841.74 643.199 841.863 643.164 841.992 643.164C842.191 643.164 842.35 643.234 842.467 643.375C842.584 643.516 842.643 643.668 842.643 643.832C842.643 643.926 842.625 644.014 842.59 644.096C842.285 644.775 841.922 645.461 841.5 646.152C841.078 646.832 840.586 647.447 840.023 647.998C839.461 648.549 838.828 648.994 838.125 649.334C837.422 649.685 836.643 649.861 835.787 649.861C835.166 649.861 834.562 649.762 833.977 649.562C833.391 649.375 832.875 649.076 832.43 648.666C832.266 648.537 832.125 648.402 832.008 648.262C831.891 648.109 831.797 647.969 831.727 647.84C831.703 647.816 831.691 647.793 831.691 647.77C831.621 647.664 831.586 647.553 831.586 647.435C831.586 647.283 831.639 647.143 831.744 647.014C831.756 646.99 831.768 646.979 831.779 646.979C831.791 646.967 831.803 646.955 831.814 646.943C831.932 646.838 832.061 646.779 832.201 646.768H832.254C832.312 646.768 832.354 646.773 832.377 646.785C832.389 646.785 832.395 646.791 832.395 646.803C832.406 646.803 832.418 646.803 832.43 646.803C832.465 646.803 832.506 646.815 832.553 646.838C832.564 646.85 832.576 646.855 832.588 646.855C832.693 646.926 832.781 647.014 832.852 647.119C832.934 647.26 833.027 647.389 833.133 647.506C833.227 647.6 833.338 647.688 833.467 647.77C833.596 647.84 833.742 647.875 833.906 647.875C834.199 647.875 834.492 647.787 834.785 647.611C835.078 647.435 835.342 647.184 835.576 646.855C835.81 646.527 835.998 646.129 836.139 645.66C836.291 645.191 836.367 644.67 836.367 644.096C836.367 643.674 836.32 643.316 836.227 643.023C836.144 642.719 836.033 642.473 835.893 642.285C835.764 642.098 835.623 641.963 835.471 641.881C835.318 641.787 835.172 641.74 835.031 641.74C834.715 641.74 834.393 641.904 834.064 642.232C833.748 642.561 833.432 642.977 833.115 643.48C832.799 643.984 832.482 644.541 832.166 645.15C831.861 645.76 831.551 646.352 831.234 646.926C831.211 648.824 831.176 650.635 831.129 652.357C831.094 654.08 831.023 655.68 830.918 657.156C830.824 658.633 830.689 659.969 830.514 661.164C830.338 662.359 830.098 663.379 829.793 664.223C829.488 665.078 829.113 665.734 828.668 666.191C828.223 666.648 827.678 666.877 827.033 666.877C826.834 666.877 826.605 666.836 826.348 666.754C826.09 666.672 825.85 666.502 825.627 666.244C825.404 665.998 825.217 665.641 825.064 665.172C824.912 664.703 824.836 664.076 824.836 663.291C824.836 662.295 824.959 661.141 825.205 659.828C825.451 658.516 825.803 657.121 826.26 655.645C826.705 654.18 827.238 652.674 827.859 651.127C828.48 649.58 829.166 648.074 829.916 646.609C829.916 646.199 829.916 645.795 829.916 645.396C829.928 644.998 829.934 644.611 829.934 644.236C829.781 644.412 829.6 644.5 829.389 644.5C829.189 644.5 829.031 644.43 828.914 644.289C828.797 644.148 828.738 643.996 828.738 643.832C828.738 643.75 828.756 643.662 828.791 643.568C829.072 642.924 829.289 642.315 829.441 641.74C829.594 641.154 829.705 640.644 829.775 640.211C829.857 639.766 829.904 639.414 829.916 639.156C829.928 638.898 829.934 638.764 829.934 638.752C829.934 638.576 829.998 638.424 830.127 638.295C830.256 638.166 830.414 638.102 830.602 638.102C830.777 638.102 830.93 638.166 831.059 638.295C831.187 638.412 831.252 638.564 831.252 638.752V644.148C831.521 643.691 831.791 643.24 832.061 642.795C832.33 642.35 832.611 641.951 832.904 641.6C833.209 641.248 833.531 640.967 833.871 640.756C834.223 640.533 834.609 640.422 835.031 640.422C835.43 640.422 835.793 640.516 836.121 640.703C836.449 640.891 836.73 641.148 836.965 641.477C837.199 641.805 837.375 642.197 837.492 642.654C837.621 643.1 837.685 643.58 837.685 644.096ZM829.881 649.738C829.307 651.027 828.785 652.322 828.316 653.623C827.859 654.924 827.473 656.178 827.156 657.385C826.828 658.592 826.576 659.723 826.4 660.777C826.225 661.832 826.137 662.758 826.137 663.555C826.137 663.754 826.148 663.971 826.172 664.205C826.195 664.44 826.242 664.656 826.312 664.855C826.383 665.055 826.482 665.219 826.611 665.348C826.74 665.488 826.91 665.559 827.121 665.559C827.508 665.559 827.842 665.313 828.123 664.82C828.404 664.34 828.639 663.684 828.826 662.852C829.025 662.031 829.189 661.082 829.318 660.004C829.447 658.937 829.547 657.818 829.617 656.646C829.699 655.475 829.758 654.291 829.793 653.096C829.828 651.912 829.857 650.793 829.881 649.738ZM844.26 635.201C844.26 635.646 844.102 636.027 843.785 636.344C843.481 636.648 843.106 636.801 842.66 636.801C842.215 636.801 841.834 636.648 841.518 636.344C841.213 636.027 841.06 635.646 841.06 635.201C841.06 634.978 841.102 634.773 841.184 634.586C841.266 634.387 841.377 634.217 841.518 634.076C841.67 633.924 841.84 633.807 842.027 633.725C842.227 633.643 842.438 633.602 842.66 633.602C842.883 633.602 843.088 633.643 843.275 633.725C843.475 633.807 843.645 633.924 843.785 634.076C843.938 634.217 844.055 634.387 844.137 634.586C844.219 634.773 844.26 634.978 844.26 635.201ZM841.412 645.502C841.412 643.815 841.518 642.133 841.729 640.457C841.752 640.293 841.822 640.152 841.94 640.035C842.068 639.906 842.232 639.842 842.432 639.842C842.607 639.842 842.754 639.912 842.871 640.053C842.988 640.182 843.047 640.334 843.047 640.51C843.047 640.58 843.029 640.791 842.994 641.143C842.971 641.494 842.936 641.916 842.889 642.408C842.854 642.889 842.818 643.404 842.783 643.955C842.76 644.494 842.748 644.992 842.748 645.449C842.748 646.07 842.807 646.574 842.924 646.961C843.053 647.336 843.211 647.629 843.398 647.84C843.598 648.051 843.803 648.191 844.014 648.262C844.236 648.332 844.447 648.367 844.646 648.367C844.975 648.367 845.315 648.25 845.666 648.016C846.018 647.781 846.375 647.453 846.738 647.031C847.113 646.609 847.488 646.106 847.863 645.52C848.238 644.922 848.607 644.26 848.971 643.533C849.029 643.416 849.111 643.328 849.217 643.27C849.322 643.199 849.439 643.164 849.568 643.164C849.756 643.164 849.908 643.234 850.025 643.375C850.154 643.516 850.219 643.668 850.219 643.832C850.219 643.949 850.195 644.049 850.148 644.131C850.008 644.4 849.832 644.729 849.621 645.115C849.41 645.502 849.17 645.9 848.9 646.31C848.631 646.721 848.332 647.131 848.004 647.541C847.688 647.94 847.348 648.303 846.984 648.631C846.621 648.947 846.24 649.205 845.842 649.404C845.443 649.604 845.039 649.703 844.629 649.703C844.102 649.703 843.639 649.592 843.24 649.369C842.842 649.147 842.502 648.848 842.221 648.473C841.951 648.098 841.746 647.658 841.605 647.154C841.477 646.639 841.412 646.088 841.412 645.502ZM843.275 635.201C843.275 635.037 843.211 634.896 843.082 634.779C842.965 634.65 842.824 634.586 842.66 634.586C842.496 634.586 842.356 634.65 842.238 634.779C842.121 634.896 842.062 635.037 842.062 635.201C842.062 635.365 842.121 635.506 842.238 635.623C842.356 635.74 842.496 635.799 842.66 635.799C842.824 635.799 842.965 635.74 843.082 635.623C843.211 635.506 843.275 635.365 843.275 635.201ZM850.799 641.775C850.752 642.092 850.693 642.391 850.623 642.672C850.553 642.941 850.482 643.182 850.412 643.393C850.353 643.592 850.301 643.756 850.254 643.885C850.207 644.014 850.178 644.084 850.166 644.096C850.049 644.365 849.844 644.5 849.551 644.5C849.387 644.5 849.234 644.441 849.094 644.324C848.953 644.195 848.883 644.037 848.883 643.85C848.883 643.779 848.894 643.727 848.918 643.691C848.941 643.656 848.977 643.586 849.023 643.48C849.07 643.375 849.129 643.199 849.199 642.953C849.269 642.707 849.357 642.326 849.463 641.81C849.264 641.81 849.059 641.805 848.848 641.793C848.637 641.781 848.443 641.74 848.268 641.67C848.08 641.6 847.928 641.488 847.81 641.336C847.693 641.184 847.635 640.973 847.635 640.703C847.635 640.504 847.693 640.234 847.81 639.895C847.916 639.555 848.062 639.221 848.25 638.893C848.438 638.565 848.648 638.283 848.883 638.049C849.117 637.803 849.352 637.68 849.586 637.68C849.855 637.68 850.072 637.779 850.236 637.979C850.412 638.178 850.547 638.424 850.641 638.717C850.734 638.998 850.799 639.297 850.834 639.613C850.881 639.93 850.904 640.205 850.904 640.44C851.104 640.44 851.297 640.44 851.484 640.44C851.684 640.428 851.871 640.422 852.047 640.422C852.715 640.422 853.225 640.568 853.576 640.861C853.928 641.154 854.104 641.635 854.104 642.303C854.104 642.572 854.086 642.853 854.051 643.146C854.016 643.439 853.975 643.744 853.928 644.06C853.881 644.365 853.84 644.67 853.805 644.975C853.77 645.279 853.752 645.578 853.752 645.871C853.752 646.293 853.811 646.645 853.928 646.926C854.045 647.195 854.191 647.412 854.367 647.576C854.543 647.74 854.731 647.857 854.93 647.928C855.129 647.986 855.31 648.016 855.475 648.016C855.978 648.016 856.453 647.852 856.898 647.523C857.344 647.195 857.754 646.803 858.129 646.346C858.504 645.877 858.838 645.385 859.131 644.869C859.436 644.354 859.687 643.902 859.887 643.516C859.945 643.41 860.027 643.328 860.133 643.27C860.238 643.211 860.35 643.182 860.467 643.182C860.678 643.182 860.842 643.252 860.959 643.393C861.076 643.521 861.135 643.668 861.135 643.832C861.135 643.949 861.111 644.055 861.064 644.148C860.795 644.629 860.479 645.174 860.115 645.783C859.764 646.381 859.359 646.943 858.902 647.471C858.445 647.998 857.93 648.443 857.355 648.807C856.793 649.17 856.172 649.352 855.492 649.352C855.07 649.352 854.672 649.269 854.297 649.105C853.922 648.953 853.594 648.731 853.312 648.438C853.043 648.133 852.826 647.764 852.662 647.33C852.498 646.885 852.416 646.387 852.416 645.836C852.416 645.25 852.475 644.67 852.592 644.096C852.709 643.51 852.768 642.953 852.768 642.426C852.768 642.203 852.715 642.039 852.609 641.934C852.516 641.816 852.299 641.758 851.959 641.758C851.795 641.758 851.613 641.758 851.414 641.758C851.227 641.758 851.021 641.764 850.799 641.775ZM849.621 640.475C849.621 640.393 849.615 640.287 849.604 640.158C849.604 640.018 849.592 639.883 849.568 639.754C849.557 639.625 849.533 639.514 849.498 639.42C849.475 639.326 849.445 639.279 849.41 639.279C849.375 639.279 849.328 639.326 849.27 639.42C849.223 639.502 849.17 639.607 849.111 639.736C849.053 639.853 849 639.982 848.953 640.123C848.906 640.264 848.871 640.381 848.848 640.475H849.621ZM863.947 647.435C864.123 647.084 864.346 646.65 864.615 646.135C864.897 645.607 865.184 645.08 865.477 644.553C865.781 644.025 866.074 643.527 866.355 643.059C866.648 642.59 866.894 642.232 867.094 641.986C867.434 641.576 867.785 641.283 868.148 641.107C868.512 640.932 868.846 640.844 869.15 640.844C869.455 640.844 869.713 640.908 869.924 641.037C870.147 641.166 870.328 641.342 870.469 641.565C870.609 641.775 870.715 642.027 870.785 642.32C870.855 642.602 870.891 642.906 870.891 643.234C870.891 643.422 870.879 643.668 870.855 643.973C870.844 644.277 870.826 644.606 870.803 644.957C870.791 645.309 870.773 645.672 870.75 646.047C870.738 646.422 870.727 646.773 870.715 647.102C870.891 646.75 871.09 646.363 871.312 645.941C871.535 645.508 871.758 645.08 871.98 644.658C872.215 644.236 872.437 643.844 872.648 643.48C872.859 643.105 873.053 642.801 873.229 642.566C873.732 641.875 874.201 641.412 874.635 641.178C875.08 640.943 875.473 640.826 875.812 640.826C876.211 640.826 876.539 640.902 876.797 641.055C877.055 641.195 877.254 641.383 877.395 641.617C877.547 641.84 877.652 642.092 877.711 642.373C877.769 642.654 877.799 642.924 877.799 643.182C877.799 643.58 877.769 643.996 877.711 644.43C877.652 644.863 877.623 645.379 877.623 645.977C877.623 646.223 877.635 646.469 877.658 646.715C877.682 646.961 877.729 647.178 877.799 647.365C877.881 647.553 878.004 647.705 878.168 647.822C878.332 647.939 878.555 647.998 878.836 647.998C879.141 647.998 879.439 647.922 879.732 647.77C880.025 647.606 880.307 647.394 880.576 647.137C880.846 646.879 881.098 646.586 881.332 646.258C881.578 645.93 881.801 645.602 882 645.273C882.199 644.945 882.375 644.635 882.527 644.342C882.68 644.037 882.803 643.779 882.896 643.568C882.955 643.439 883.037 643.34 883.143 643.27C883.248 643.199 883.365 643.164 883.494 643.164C883.693 643.164 883.852 643.24 883.969 643.393C884.098 643.533 884.162 643.685 884.162 643.85C884.162 643.932 884.145 644.014 884.109 644.096C884.063 644.189 883.969 644.389 883.828 644.693C883.687 644.986 883.5 645.326 883.266 645.713C883.031 646.088 882.756 646.486 882.439 646.908C882.135 647.33 881.795 647.723 881.42 648.086C881.045 648.437 880.641 648.73 880.207 648.965C879.773 649.187 879.316 649.299 878.836 649.299C878.32 649.299 877.898 649.205 877.57 649.018C877.254 648.842 876.996 648.602 876.797 648.297C876.609 647.992 876.48 647.641 876.41 647.242C876.34 646.844 876.305 646.428 876.305 645.994C876.305 645.42 876.334 644.893 876.393 644.412C876.451 643.92 876.48 643.539 876.48 643.27C876.48 642.977 876.451 642.754 876.393 642.602C876.346 642.449 876.281 642.344 876.199 642.285C876.129 642.215 876.059 642.18 875.988 642.18C875.918 642.168 875.865 642.162 875.83 642.162C875.549 642.162 875.25 642.32 874.934 642.637C874.629 642.941 874.313 643.352 873.984 643.867C873.656 644.383 873.316 644.969 872.965 645.625C872.625 646.281 872.279 646.949 871.928 647.629C871.729 648.004 871.559 648.314 871.418 648.56C871.289 648.807 871.16 649 871.031 649.141C870.914 649.281 870.797 649.381 870.68 649.44C870.562 649.498 870.434 649.527 870.293 649.527C869.988 649.527 869.754 649.422 869.59 649.211C869.438 649 869.361 648.725 869.361 648.385C869.361 648.209 869.367 647.975 869.379 647.682C869.391 647.389 869.402 647.066 869.414 646.715C869.426 646.363 869.443 646 869.467 645.625C869.49 645.25 869.508 644.893 869.52 644.553C869.531 644.201 869.543 643.891 869.555 643.621C869.566 643.352 869.572 643.146 869.572 643.006C869.572 642.701 869.52 642.484 869.414 642.355C869.309 642.215 869.185 642.145 869.045 642.145C868.916 642.145 868.769 642.191 868.605 642.285C868.453 642.379 868.272 642.56 868.061 642.83C867.897 643.041 867.686 643.352 867.428 643.762C867.182 644.16 866.918 644.606 866.637 645.098C866.355 645.59 866.074 646.094 865.793 646.609C865.523 647.125 865.289 647.588 865.09 647.998C864.844 648.49 864.598 648.824 864.352 649C864.106 649.188 863.865 649.281 863.631 649.281C863.291 649.281 863.039 649.182 862.875 648.982C862.711 648.772 862.629 648.496 862.629 648.156C862.629 648.121 862.635 647.91 862.646 647.523C862.67 647.137 862.693 646.668 862.717 646.117C862.74 645.555 862.764 644.957 862.787 644.324C862.822 643.691 862.852 643.1 862.875 642.549C862.887 642.256 862.875 641.986 862.84 641.74C862.805 641.494 862.758 641.348 862.699 641.301C862.605 641.324 862.418 641.541 862.137 641.951C861.867 642.361 861.522 643.076 861.1 644.096C861.041 644.225 860.953 644.324 860.836 644.395C860.719 644.465 860.596 644.5 860.467 644.5C860.268 644.5 860.109 644.436 859.992 644.307C859.875 644.166 859.816 644.008 859.816 643.832C859.816 643.75 859.834 643.662 859.869 643.568C860.396 642.314 860.9 641.394 861.381 640.809C861.861 640.211 862.33 639.912 862.787 639.912C863.057 639.912 863.279 639.977 863.455 640.105C863.643 640.223 863.789 640.381 863.895 640.58C864 640.768 864.076 640.984 864.123 641.23C864.17 641.477 864.193 641.717 864.193 641.951C864.193 642.994 864.164 643.949 864.105 644.816C864.059 645.684 864.006 646.557 863.947 647.435ZM896.502 644.096C896.455 644.189 896.356 644.389 896.203 644.693C896.063 644.986 895.875 645.326 895.641 645.713C895.418 646.1 895.154 646.504 894.85 646.926C894.545 647.348 894.205 647.734 893.83 648.086C893.455 648.437 893.051 648.73 892.617 648.965C892.184 649.187 891.727 649.299 891.246 649.299C890.566 649.299 889.992 649.082 889.523 648.648C889.066 648.215 888.732 647.67 888.521 647.014C888.123 647.682 887.648 648.215 887.098 648.613C886.547 649 885.996 649.193 885.445 649.193C885.012 649.193 884.619 649.117 884.268 648.965C883.916 648.801 883.617 648.578 883.371 648.297C883.125 648.004 882.932 647.664 882.791 647.277C882.662 646.891 882.598 646.469 882.598 646.012C882.598 645.098 882.75 644.295 883.055 643.604C883.371 642.9 883.769 642.314 884.25 641.846C884.731 641.377 885.258 641.025 885.832 640.791C886.418 640.557 886.981 640.44 887.52 640.44C887.883 640.44 888.217 640.492 888.521 640.598C888.826 640.691 889.084 640.797 889.295 640.914C889.518 641.031 889.688 641.143 889.805 641.248C889.922 641.342 889.986 641.395 889.998 641.406C890.127 641.559 890.191 641.717 890.191 641.881C890.191 642.057 890.127 642.215 889.998 642.355C889.869 642.484 889.717 642.549 889.541 642.549C889.354 642.549 889.195 642.484 889.066 642.355C889.043 642.332 888.99 642.291 888.908 642.232C888.826 642.162 888.715 642.092 888.574 642.021C888.434 641.951 888.264 641.893 888.064 641.846C887.877 641.787 887.66 641.758 887.414 641.758C887.051 641.758 886.664 641.84 886.254 642.004C885.844 642.168 885.469 642.426 885.129 642.777C884.789 643.117 884.502 643.551 884.268 644.078C884.045 644.594 883.934 645.209 883.934 645.924C883.934 646.146 883.957 646.375 884.004 646.609C884.051 646.832 884.133 647.037 884.25 647.225C884.367 647.412 884.525 647.565 884.725 647.682C884.924 647.799 885.17 647.857 885.463 647.857C885.674 647.857 885.914 647.787 886.184 647.646C886.465 647.506 886.729 647.289 886.975 646.996C887.232 646.703 887.461 646.334 887.66 645.889C887.871 645.443 888.018 644.916 888.1 644.307C888.123 644.143 888.199 644.008 888.328 643.902C888.457 643.785 888.609 643.727 888.785 643.727C888.949 643.727 889.09 643.791 889.207 643.92C889.336 644.049 889.406 644.195 889.418 644.359C889.43 644.582 889.453 644.898 889.488 645.309C889.523 645.707 889.6 646.106 889.717 646.504C889.846 646.902 890.033 647.248 890.279 647.541C890.525 647.834 890.865 647.98 891.299 647.98C891.58 647.98 891.856 647.904 892.125 647.752C892.406 647.6 892.676 647.4 892.934 647.154C893.203 646.897 893.455 646.609 893.689 646.293C893.935 645.965 894.158 645.637 894.357 645.309C894.557 644.98 894.732 644.664 894.885 644.359C895.037 644.055 895.166 643.791 895.271 643.568C895.33 643.439 895.412 643.34 895.518 643.27C895.635 643.199 895.758 643.164 895.887 643.164C896.086 643.164 896.244 643.24 896.361 643.393C896.49 643.533 896.555 643.685 896.555 643.85C896.555 643.932 896.537 644.014 896.502 644.096ZM899.191 647.418C899.379 647.031 899.596 646.609 899.842 646.152C900.088 645.684 900.352 645.215 900.633 644.746C900.914 644.266 901.207 643.791 901.512 643.322C901.828 642.853 902.156 642.408 902.496 641.986C902.836 641.576 903.176 641.283 903.516 641.107C903.867 640.92 904.195 640.826 904.5 640.826C905.109 640.826 905.561 641.049 905.854 641.494C906.147 641.94 906.293 642.49 906.293 643.146C906.293 643.299 906.281 643.486 906.258 643.709C906.246 643.92 906.229 644.148 906.205 644.395C906.193 644.641 906.176 644.893 906.152 645.15C906.141 645.397 906.135 645.631 906.135 645.854C906.135 646.135 906.146 646.404 906.17 646.662C906.205 646.92 906.264 647.148 906.346 647.348C906.428 647.535 906.545 647.688 906.697 647.805C906.85 647.91 907.049 647.963 907.295 647.963C907.74 647.963 908.174 647.793 908.596 647.453C909.018 647.102 909.404 646.691 909.756 646.223C910.119 645.742 910.43 645.256 910.688 644.764C910.957 644.272 911.156 643.873 911.285 643.568C911.344 643.439 911.426 643.34 911.531 643.27C911.648 643.199 911.771 643.164 911.9 643.164C912.1 643.164 912.258 643.24 912.375 643.393C912.504 643.533 912.568 643.685 912.568 643.85C912.568 643.932 912.551 644.014 912.516 644.096C912.469 644.189 912.375 644.383 912.234 644.676C912.094 644.969 911.906 645.309 911.672 645.695C911.449 646.07 911.185 646.475 910.881 646.908C910.576 647.33 910.236 647.717 909.861 648.068C909.498 648.42 909.1 648.713 908.666 648.947C908.244 649.182 907.799 649.299 907.33 649.299C906.803 649.299 906.375 649.199 906.047 649C905.719 648.789 905.461 648.52 905.273 648.191C905.086 647.852 904.957 647.482 904.887 647.084C904.828 646.674 904.799 646.264 904.799 645.854C904.799 645.678 904.805 645.478 904.816 645.256C904.84 645.033 904.863 644.799 904.887 644.553C904.922 644.307 904.945 644.061 904.957 643.815C904.981 643.568 904.992 643.334 904.992 643.111C904.992 642.736 904.934 642.484 904.816 642.355C904.699 642.215 904.594 642.145 904.5 642.145C904.312 642.145 904.096 642.256 903.85 642.479C903.615 642.69 903.363 642.971 903.094 643.322C902.836 643.674 902.566 644.072 902.285 644.518C902.016 644.951 901.758 645.385 901.512 645.818C901.277 646.252 901.055 646.668 900.844 647.066C900.645 647.453 900.486 647.775 900.369 648.033C900.135 648.525 899.9 648.853 899.666 649.018C899.432 649.193 899.191 649.281 898.945 649.281C898.605 649.281 898.33 649.182 898.119 648.982C897.92 648.772 897.82 648.479 897.82 648.104C897.82 648.022 897.832 647.863 897.855 647.629C897.879 647.383 897.908 647.096 897.943 646.768C897.978 646.428 898.014 646.065 898.049 645.678C898.084 645.291 898.119 644.91 898.154 644.535C898.189 644.148 898.219 643.791 898.242 643.463C898.266 643.135 898.277 642.859 898.277 642.637C898.277 642.344 898.266 642.062 898.242 641.793C898.219 641.523 898.172 641.359 898.102 641.301C897.996 641.336 897.809 641.559 897.539 641.969C897.27 642.367 896.924 643.076 896.502 644.096C896.443 644.225 896.355 644.324 896.238 644.395C896.121 644.465 895.998 644.5 895.869 644.5C895.67 644.5 895.512 644.436 895.395 644.307C895.277 644.166 895.219 644.008 895.219 643.832C895.219 643.75 895.236 643.662 895.271 643.568C895.799 642.314 896.291 641.394 896.748 640.809C897.217 640.211 897.68 639.912 898.137 639.912C898.406 639.912 898.635 639.982 898.822 640.123C899.01 640.252 899.156 640.428 899.262 640.65C899.379 640.873 899.461 641.119 899.508 641.389C899.566 641.658 899.596 641.934 899.596 642.215C899.596 642.426 899.578 642.754 899.543 643.199C899.519 643.644 899.484 644.125 899.438 644.641C899.391 645.145 899.344 645.648 899.297 646.152C899.262 646.656 899.227 647.078 899.191 647.418ZM913.271 642.496C913.201 642.684 913.113 642.895 913.008 643.129C912.914 643.363 912.803 643.609 912.674 643.867C912.568 644.066 912.457 644.225 912.34 644.342C912.234 644.447 912.094 644.5 911.918 644.5C911.719 644.5 911.56 644.441 911.443 644.324C911.326 644.195 911.268 644.049 911.268 643.885C911.268 643.826 911.273 643.779 911.285 643.744C911.297 643.697 911.326 643.627 911.373 643.533C911.678 642.947 911.9 642.438 912.041 642.004C912.193 641.559 912.316 641.096 912.41 640.615C912.328 640.346 912.269 640.117 912.234 639.93C912.199 639.742 912.182 639.549 912.182 639.35C912.182 638.963 912.264 638.652 912.428 638.418C912.592 638.172 912.82 638.049 913.113 638.049C913.383 638.049 913.594 638.166 913.746 638.4C913.91 638.635 913.992 638.922 913.992 639.262C913.992 639.449 913.975 639.637 913.939 639.824C913.904 640.012 913.857 640.246 913.799 640.527C914.068 641.195 914.338 641.787 914.607 642.303C914.877 642.818 915.117 643.293 915.328 643.727C915.539 644.148 915.709 644.547 915.838 644.922C915.978 645.297 916.049 645.672 916.049 646.047C916.049 646.539 915.949 647.008 915.75 647.453C915.551 647.898 915.223 648.273 914.766 648.578C914.824 648.59 914.883 648.596 914.941 648.596C915 648.596 915.059 648.596 915.117 648.596C915.785 648.596 916.4 648.443 916.963 648.139C917.525 647.834 918.029 647.441 918.475 646.961C918.932 646.469 919.336 645.93 919.688 645.344C920.039 644.746 920.344 644.154 920.602 643.568C920.719 643.299 920.883 643.164 921.094 643.164C921.293 643.164 921.445 643.234 921.551 643.375C921.668 643.516 921.727 643.668 921.727 643.832C921.727 643.926 921.709 644.014 921.674 644.096C921.545 644.412 921.375 644.775 921.164 645.185C920.965 645.584 920.719 646 920.426 646.434C920.144 646.855 919.816 647.272 919.441 647.682C919.066 648.092 918.644 648.461 918.176 648.789C917.719 649.106 917.215 649.357 916.664 649.545C916.113 649.744 915.51 649.844 914.854 649.844C914.068 649.844 913.336 649.703 912.656 649.422C911.988 649.152 911.443 648.701 911.021 648.068C910.951 647.963 910.916 647.852 910.916 647.734C910.916 647.559 910.98 647.406 911.109 647.277C911.25 647.137 911.408 647.066 911.584 647.066C911.771 647.066 911.93 647.131 912.059 647.26C912.07 647.283 912.111 647.324 912.182 647.383C912.252 647.43 912.334 647.488 912.428 647.559C912.533 647.617 912.65 647.67 912.779 647.717C912.92 647.764 913.061 647.787 913.201 647.787C913.482 647.787 913.717 647.728 913.904 647.611C914.103 647.494 914.262 647.354 914.379 647.19C914.496 647.014 914.578 646.832 914.625 646.645C914.684 646.445 914.713 646.275 914.713 646.135C914.713 645.842 914.666 645.549 914.572 645.256C914.479 644.963 914.356 644.67 914.203 644.377C914.063 644.084 913.904 643.785 913.729 643.48C913.565 643.164 913.412 642.836 913.271 642.496ZM927 649.246C927.41 648.836 927.826 648.42 928.248 647.998C928.67 647.564 929.08 647.113 929.479 646.645C929.877 646.176 930.246 645.689 930.586 645.185C930.938 644.67 931.248 644.125 931.518 643.551C931.576 643.422 931.658 643.328 931.764 643.27C931.869 643.199 931.986 643.164 932.115 643.164C932.314 643.164 932.473 643.234 932.59 643.375C932.719 643.516 932.783 643.674 932.783 643.85C932.783 643.943 932.766 644.031 932.73 644.113C932.367 644.875 931.951 645.572 931.482 646.205C931.014 646.838 930.521 647.441 930.006 648.016C929.49 648.578 928.969 649.123 928.441 649.65C927.914 650.19 927.41 650.728 926.93 651.268C926.883 652.076 926.883 652.885 926.93 653.693C926.977 654.514 927 655.381 927 656.295C927 657.045 926.977 657.795 926.93 658.545C926.883 659.295 926.807 660.01 926.701 660.689C926.596 661.381 926.449 662.025 926.262 662.623C926.086 663.221 925.857 663.736 925.576 664.17C925.295 664.615 924.967 664.961 924.592 665.207C924.217 665.465 923.777 665.594 923.273 665.594C922.441 665.594 921.803 665.307 921.357 664.732C920.912 664.158 920.689 663.355 920.689 662.324C920.689 661.762 920.748 661.158 920.865 660.514C920.994 659.869 921.17 659.201 921.393 658.51C921.615 657.83 921.879 657.139 922.184 656.436C922.5 655.732 922.84 655.047 923.203 654.379C923.566 653.711 923.953 653.072 924.363 652.463C924.773 651.865 925.189 651.32 925.611 650.828C925.635 650.266 925.658 649.68 925.682 649.07C925.717 648.473 925.752 647.916 925.787 647.4C925.482 647.94 925.102 648.373 924.645 648.701C924.199 649.029 923.707 649.193 923.168 649.193C922.277 649.193 921.58 648.894 921.076 648.297C920.572 647.699 920.32 646.879 920.32 645.836C920.32 645.074 920.391 644.383 920.531 643.762C920.684 643.129 920.842 642.59 921.006 642.145C921.182 641.688 921.34 641.342 921.48 641.107C921.621 640.861 921.691 640.744 921.691 640.756C921.82 640.557 922.002 640.457 922.236 640.457C922.435 640.457 922.594 640.527 922.711 640.668C922.84 640.797 922.904 640.949 922.904 641.125C922.904 641.254 922.869 641.371 922.799 641.477C922.81 641.465 922.752 641.565 922.623 641.775C922.506 641.975 922.371 642.268 922.219 642.654C922.078 643.041 921.943 643.504 921.814 644.043C921.697 644.582 921.639 645.174 921.639 645.818C921.639 646.463 921.756 646.967 921.99 647.33C922.225 647.693 922.605 647.875 923.133 647.875C923.801 647.875 924.404 647.383 924.943 646.398C925.482 645.402 925.939 643.961 926.314 642.074C926.338 641.922 926.408 641.799 926.525 641.705C926.643 641.6 926.783 641.547 926.947 641.547C927.135 641.547 927.293 641.611 927.422 641.74C927.551 641.869 927.615 642.027 927.615 642.215C927.615 642.25 927.592 642.461 927.545 642.848C927.498 643.223 927.439 643.727 927.369 644.359C927.311 644.992 927.246 645.73 927.176 646.574C927.105 647.406 927.047 648.297 927 649.246ZM925.594 652.973C925.066 653.734 924.58 654.537 924.135 655.381C923.701 656.225 923.326 657.063 923.01 657.895C922.693 658.727 922.447 659.523 922.271 660.285C922.096 661.047 922.008 661.727 922.008 662.324C922.008 662.934 922.107 663.408 922.307 663.748C922.506 664.1 922.822 664.275 923.256 664.275C923.643 664.275 923.982 664.082 924.275 663.695C924.58 663.32 924.832 662.781 925.031 662.078C925.242 661.375 925.4 660.519 925.506 659.512C925.611 658.516 925.664 657.397 925.664 656.154C925.664 655.65 925.652 655.141 925.629 654.625C925.617 654.109 925.605 653.559 925.594 652.973ZM945.123 644.096C945.076 644.189 944.977 644.389 944.824 644.693C944.684 644.986 944.496 645.326 944.262 645.713C944.039 646.1 943.775 646.504 943.471 646.926C943.166 647.348 942.826 647.734 942.451 648.086C942.076 648.437 941.672 648.73 941.238 648.965C940.805 649.187 940.348 649.299 939.867 649.299C939.188 649.299 938.613 649.082 938.145 648.648C937.688 648.215 937.354 647.67 937.143 647.014C936.744 647.682 936.27 648.215 935.719 648.613C935.168 649 934.617 649.193 934.066 649.193C933.633 649.193 933.24 649.117 932.889 648.965C932.537 648.801 932.238 648.578 931.992 648.297C931.746 648.004 931.553 647.664 931.412 647.277C931.283 646.891 931.219 646.469 931.219 646.012C931.219 645.098 931.371 644.295 931.676 643.604C931.992 642.9 932.391 642.314 932.871 641.846C933.352 641.377 933.879 641.025 934.453 640.791C935.039 640.557 935.602 640.44 936.141 640.44C936.504 640.44 936.838 640.492 937.143 640.598C937.447 640.691 937.705 640.797 937.916 640.914C938.139 641.031 938.309 641.143 938.426 641.248C938.543 641.342 938.607 641.395 938.619 641.406C938.748 641.559 938.812 641.717 938.812 641.881C938.812 642.057 938.748 642.215 938.619 642.355C938.49 642.484 938.338 642.549 938.162 642.549C937.975 642.549 937.816 642.484 937.688 642.355C937.664 642.332 937.611 642.291 937.529 642.232C937.447 642.162 937.336 642.092 937.195 642.021C937.055 641.951 936.885 641.893 936.686 641.846C936.498 641.787 936.281 641.758 936.035 641.758C935.672 641.758 935.285 641.84 934.875 642.004C934.465 642.168 934.09 642.426 933.75 642.777C933.41 643.117 933.123 643.551 932.889 644.078C932.666 644.594 932.555 645.209 932.555 645.924C932.555 646.146 932.578 646.375 932.625 646.609C932.672 646.832 932.754 647.037 932.871 647.225C932.988 647.412 933.146 647.565 933.346 647.682C933.545 647.799 933.791 647.857 934.084 647.857C934.295 647.857 934.535 647.787 934.805 647.646C935.086 647.506 935.35 647.289 935.596 646.996C935.854 646.703 936.082 646.334 936.281 645.889C936.492 645.443 936.639 644.916 936.721 644.307C936.744 644.143 936.82 644.008 936.949 643.902C937.078 643.785 937.23 643.727 937.406 643.727C937.57 643.727 937.711 643.791 937.828 643.92C937.957 644.049 938.027 644.195 938.039 644.359C938.051 644.582 938.074 644.898 938.109 645.309C938.145 645.707 938.221 646.106 938.338 646.504C938.467 646.902 938.654 647.248 938.9 647.541C939.146 647.834 939.486 647.98 939.92 647.98C940.201 647.98 940.477 647.904 940.746 647.752C941.027 647.6 941.297 647.4 941.555 647.154C941.824 646.897 942.076 646.609 942.311 646.293C942.557 645.965 942.779 645.637 942.979 645.309C943.178 644.98 943.354 644.664 943.506 644.359C943.658 644.055 943.787 643.791 943.893 643.568C943.951 643.439 944.033 643.34 944.139 643.27C944.256 643.199 944.379 643.164 944.508 643.164C944.707 643.164 944.865 643.24 944.982 643.393C945.111 643.533 945.176 643.685 945.176 643.85C945.176 643.932 945.158 644.014 945.123 644.096ZM945.299 647.506C945.486 647.107 945.703 646.68 945.949 646.223C946.195 645.754 946.459 645.279 946.74 644.799C947.021 644.307 947.32 643.82 947.637 643.34C947.953 642.859 948.281 642.408 948.621 641.986C948.961 641.576 949.301 641.283 949.641 641.107C949.992 640.92 950.32 640.826 950.625 640.826C950.93 640.826 951.193 640.891 951.416 641.02C951.65 641.137 951.838 641.301 951.979 641.512C952.131 641.723 952.242 641.969 952.312 642.25C952.395 642.531 952.436 642.836 952.436 643.164C952.436 643.434 952.406 643.797 952.348 644.254C952.301 644.699 952.277 645.168 952.277 645.66C952.277 645.941 952.289 646.223 952.312 646.504C952.348 646.773 952.4 647.02 952.471 647.242C952.553 647.453 952.67 647.629 952.822 647.77C952.975 647.898 953.174 647.963 953.42 647.963C953.701 647.963 953.982 647.887 954.264 647.734C954.545 647.57 954.82 647.359 955.09 647.102C955.359 646.832 955.617 646.539 955.863 646.223C956.109 645.895 956.332 645.572 956.531 645.256C956.73 644.928 956.906 644.617 957.059 644.324C957.211 644.019 957.334 643.768 957.428 643.568C957.545 643.299 957.75 643.164 958.043 643.164C958.242 643.164 958.4 643.234 958.518 643.375C958.635 643.516 958.693 643.668 958.693 643.832C958.693 643.926 958.676 644.014 958.641 644.096C958.594 644.189 958.5 644.383 958.359 644.676C958.23 644.969 958.049 645.309 957.814 645.695C957.592 646.082 957.328 646.486 957.023 646.908C956.719 647.33 956.379 647.723 956.004 648.086C955.641 648.437 955.242 648.73 954.809 648.965C954.387 649.187 953.941 649.299 953.473 649.299C952.934 649.299 952.5 649.187 952.172 648.965C951.844 648.73 951.586 648.437 951.398 648.086C951.223 647.734 951.1 647.342 951.029 646.908C950.971 646.475 950.941 646.053 950.941 645.643C950.941 645.432 950.947 645.209 950.959 644.975C950.982 644.728 951.006 644.488 951.029 644.254C951.053 644.02 951.07 643.803 951.082 643.604C951.105 643.393 951.117 643.217 951.117 643.076C951.117 642.713 951.064 642.467 950.959 642.338C950.865 642.209 950.754 642.145 950.625 642.145C950.438 642.145 950.221 642.256 949.975 642.479C949.74 642.69 949.488 642.971 949.219 643.322C948.961 643.674 948.697 644.072 948.428 644.518C948.17 644.951 947.918 645.385 947.672 645.818C947.426 646.252 947.203 646.668 947.004 647.066C946.805 647.453 946.641 647.775 946.512 648.033C946.266 648.525 946.014 648.853 945.756 649.018C945.51 649.193 945.287 649.281 945.088 649.281C944.725 649.281 944.443 649.141 944.244 648.859C944.057 648.566 943.963 648.215 943.963 647.805V646.697C943.963 644.482 943.963 642.373 943.963 640.369C943.975 638.354 944.004 636.484 944.051 634.762C944.109 633.027 944.197 631.463 944.314 630.068C944.443 628.662 944.631 627.467 944.877 626.482C945.123 625.486 945.434 624.719 945.809 624.18C946.195 623.641 946.676 623.371 947.25 623.371C947.742 623.371 948.158 623.506 948.498 623.775C948.838 624.045 949.113 624.414 949.324 624.883C949.535 625.34 949.688 625.879 949.781 626.5C949.875 627.109 949.922 627.754 949.922 628.434C949.922 629.816 949.793 631.176 949.535 632.512C949.289 633.836 948.955 635.131 948.533 636.396C948.111 637.662 947.619 638.898 947.057 640.105C946.494 641.301 945.902 642.467 945.281 643.604C945.281 643.815 945.281 644.066 945.281 644.359C945.281 644.652 945.281 644.945 945.281 645.238C945.281 645.531 945.281 645.807 945.281 646.065C945.281 646.322 945.281 646.527 945.281 646.68L945.299 647.506ZM945.299 641.02C945.791 639.941 946.236 638.893 946.635 637.873C947.045 636.842 947.391 635.816 947.672 634.797C947.965 633.777 948.193 632.746 948.357 631.703C948.521 630.648 948.604 629.553 948.604 628.416C948.604 628.229 948.592 627.93 948.568 627.52C948.557 627.109 948.504 626.693 948.41 626.271C948.328 625.85 948.193 625.48 948.006 625.164C947.83 624.848 947.578 624.689 947.25 624.689C946.992 624.689 946.77 624.865 946.582 625.217C946.395 625.557 946.23 626.025 946.09 626.623C945.949 627.209 945.832 627.895 945.738 628.68C945.645 629.465 945.568 630.297 945.51 631.176C945.451 632.055 945.404 632.957 945.369 633.883C945.346 634.809 945.328 635.711 945.316 636.59C945.305 637.457 945.299 638.271 945.299 639.033C945.299 639.795 945.299 640.457 945.299 641.02Z" fill="white"/>
<path opacity="0.18" d="M950.924 558.105C909.797 590.294 839.073 606.149 770.123 608.602C701.174 611.056 632.786 601.739 565.699 592.182C505.708 583.602 440.1 571.969 377.625 573.771C332.358 575.058 289.132 584.495 242.948 584.392C165.75 584.237 103.482 564.608 62.9461 529.965C54.1055 522.376 46.4753 514.336 40.1501 505.943C40.0928 505.789 39.9822 505.643 39.8249 505.514C-10.0838 439.609 -4.05215 358.604 64.6018 297.897C87.4274 277.702 116.018 259.823 137.543 239.164C156.88 220.598 170.066 200.128 187.806 181.065C249.69 114.817 370.677 69.9129 498.79 60.064C543.898 56.4896 589.74 57.5642 634.205 63.2383C752.117 78.5779 858.025 127.531 900.306 193.248C927.862 236.144 928.099 283.158 942.586 328.199C955.123 367.183 978.48 404.88 988.03 444.139C997.58 483.397 991.638 526.242 950.924 558.105Z" fill="white"/>
<path opacity="0.18" d="M342.596 510.773C295.631 527.383 244.237 527.023 193.418 522.887C187.684 515.299 182.735 507.258 178.633 498.865C220.371 492.735 262.547 489.295 304.836 488.57C314.713 488.398 345.396 483.611 354.313 489.548C366.701 497.819 354.581 506.535 342.596 510.773Z" fill="#1386BA"/>
<path opacity="0.18" d="M707.783 561.631L418.02 462.059V155.571L707.783 255.143V561.631Z" fill="#04A9F4"/>
<path d="M315.48 399.362C315.48 399.362 336.153 434.314 340.007 445.296C343.862 456.277 343.536 488.639 343.536 488.639H332.279C332.279 488.639 332.279 456.037 327.504 450.495C322.729 444.952 296.111 416.915 296.111 416.915L315.48 399.362Z" fill="#473F47"/>
<path d="M317.782 403.566C317.782 403.566 305.24 448.899 298.758 458.971C292.276 469.043 274.538 487.437 274.538 487.437L264.949 482.856C264.949 482.856 289.515 454.012 288.153 445.553C286.792 437.094 283.302 404.801 283.302 404.801C283.302 404.801 300.638 396.393 317.782 403.566Z" fill="#473F47"/>
<path d="M342.31 391.16C364.106 391.16 381.776 375.35 381.776 355.847C381.776 336.345 364.106 320.535 342.31 320.535C320.513 320.535 302.844 336.345 302.844 355.847C302.844 375.35 320.513 391.16 342.31 391.16Z" fill="#04A9F4"/>
<path d="M275.343 338.569C275.343 338.569 265.352 343.133 269.072 354.132C272.793 365.13 284.548 389.839 283.282 397.166C282.017 404.492 283.282 404.715 283.282 404.715C283.282 404.715 309.536 413.192 317.801 403.566C317.801 403.566 302.172 354.132 298.854 347.937C295.536 341.743 286.044 334.931 275.343 338.569Z" fill="white"/>
<path d="M280.463 362.985C281.448 365.686 282.814 368.264 284.528 370.655C285.39 372.08 286.426 373.415 287.616 374.636C290.991 377.879 296.053 379.115 300.579 380.916C301.388 381.189 302.135 381.59 302.785 382.1C303.459 382.782 303.992 383.567 304.357 384.417C306.812 389.221 310.11 394.094 315.499 396.273C313.294 388.689 311.088 381.122 308.518 373.641C308.151 372.303 307.542 371.028 306.716 369.866C305.722 368.756 304.538 367.795 303.206 367.018C297.453 363.294 291.95 359.519 286.235 355.865C284.317 354.629 282.246 353.222 280.597 355.47C279.178 357.426 279.811 360.909 280.463 362.985Z" fill="url(#paint0_linear)"/>
<path d="M293.867 319.282C294.443 319.797 295.152 320.329 295.152 320.998C295.059 321.539 294.808 322.048 294.424 322.474C292.698 325.116 294.27 328.874 292.199 331.276C291.424 332.119 290.37 332.72 289.188 332.992C288.003 333.143 286.855 333.473 285.794 333.97C284.996 334.672 284.541 335.628 284.528 336.63C284.413 337.814 284.643 339.015 284.528 340.216C284.557 340.618 284.47 341.02 284.276 341.384C284.081 341.748 283.785 342.06 283.416 342.292C283.051 342.446 282.649 342.516 282.246 342.498C279.925 342.587 277.601 342.426 275.323 342.017C274.999 341.971 274.691 341.859 274.422 341.691C274.143 341.422 273.968 341.079 273.923 340.713C272.945 336.75 272.006 332.769 270.951 328.805C270.361 327.377 269.642 325.994 268.803 324.67C268.017 322.68 267.748 320.556 268.017 318.459C268.271 316.887 268.871 315.377 269.781 314.014C270.528 312.731 271.606 311.625 272.926 310.789C273.909 310.27 274.967 309.878 276.071 309.622C279.907 308.575 285.832 307.168 289.131 310.085C291.892 312.504 291.01 316.726 293.867 319.282Z" fill="#FCBDBA"/>
<path d="M294.251 323.726C293.446 323.28 290.799 324.224 289.841 324.207C286.715 324.121 284.087 325.494 281.633 323.812C279.76 322.241 278.502 320.171 278.047 317.91C278.028 317.79 278.028 317.669 278.047 317.549C278.07 317.394 278.136 317.247 278.238 317.12C279.408 315.61 281.767 315.404 283.761 315.01C287.314 314.1 290.509 312.316 292.986 309.862C293.656 309.369 294.099 308.673 294.232 307.906C294.194 307.469 294.04 307.047 293.783 306.674C293.526 306.301 293.174 305.988 292.755 305.761C291.501 305.04 290.099 304.55 288.63 304.32C287.161 304.09 285.656 304.125 284.203 304.423C281.312 305.024 278.457 305.757 275.65 306.619C272.946 307.306 270.146 307.717 267.442 308.489C266.872 308.642 266.329 308.867 265.831 309.159C265.195 309.611 264.7 310.202 264.393 310.875C263.911 311.747 263.66 312.707 263.66 313.68C263.66 314.653 263.911 315.613 264.393 316.485C264.599 316.742 264.742 317.034 264.815 317.343C264.835 317.644 264.796 317.946 264.7 318.236C264.028 320.861 265.505 323.486 266.924 325.854L270.759 332.083C271.144 332.829 271.707 333.491 272.409 334.022C272.775 334.264 273.219 334.395 273.674 334.395C274.13 334.395 274.574 334.264 274.94 334.022C275.707 333.438 275.745 332.306 276.666 331.825C276.982 331.726 277.319 331.693 277.652 331.728C277.984 331.764 278.303 331.868 278.584 332.031C280.233 332.735 281.594 333.85 283.186 334.639C285.959 336.027 289.227 336.39 292.295 335.652C293.097 335.474 293.852 335.16 294.52 334.725C295.166 334.146 295.616 333.415 295.82 332.617C296.023 331.819 295.972 330.985 295.67 330.212C295.364 328.548 295.958 324.67 294.251 323.726Z" fill="#473F47"/>
<path d="M277.605 355.796C277.605 355.796 288.363 380.521 330.994 385.257L332.528 379.921C332.528 379.921 304.05 369.849 298.009 359.622C296.244 356.747 294.718 353.759 293.445 350.683C293.059 349.633 292.446 348.663 291.64 347.826C290.834 346.989 289.852 346.302 288.75 345.805C287.647 345.308 286.446 345.01 285.215 344.928C283.984 344.847 282.747 344.983 281.575 345.329C281.153 345.466 280.731 345.621 280.328 345.792C277.26 347.302 275.342 350.168 277.605 355.796Z" fill="white"/>
<path d="M339.7 378.823C339.662 379.503 339.34 380.145 338.799 380.624C341.537 381.535 344.431 382.011 347.352 382.031C347.886 381.98 348.422 382.116 348.848 382.409C349.404 382.958 348.963 383.85 348.426 384.416C346.209 386.64 343.146 388.047 339.835 388.363C337.678 388.737 335.442 388.415 333.525 387.453C332.186 386.576 331.063 385.46 330.227 384.176C329.958 383.894 329.811 383.535 329.811 383.164C329.811 382.793 329.958 382.434 330.227 382.151C330.572 381.585 331.052 380.436 331.761 380.161C332.514 380.025 333.29 380.025 334.043 380.161C335.923 379.749 337.687 378.634 339.7 378.823Z" fill="#FCBDBA"/>
<path d="M257.067 488.055C256.65 488.398 256.396 488.871 256.357 489.376C256.449 489.798 256.7 490.18 257.067 490.457C261.685 494.949 267.242 498.587 273.425 501.164C275.112 501.885 277.452 502.383 278.603 501.061C279.753 499.74 278.603 497.75 277.567 496.223C276.239 494.199 275.427 491.937 275.189 489.599C275.185 488.797 275.003 488.004 274.652 487.266C273.463 485.275 267.538 483.199 265.064 483.216C261.746 483.165 259.061 486.013 257.067 488.055Z" fill="#107DAE"/>
<path d="M328.539 495.811C328.428 496.025 328.375 496.26 328.386 496.497C328.397 496.733 328.472 496.964 328.603 497.169C328.735 497.374 328.92 497.548 329.142 497.676C329.365 497.804 329.619 497.882 329.882 497.904C336.355 499.72 343.161 500.396 349.922 499.894C351.839 499.757 354.102 499.157 354.352 497.509C354.601 495.862 352.434 494.644 350.766 493.769C348.491 492.592 346.528 490.988 345.012 489.067C344.555 488.398 343.956 487.815 343.248 487.352C341.12 486.15 334.83 486.991 332.701 488.106C329.901 489.479 329.153 493.151 328.539 495.811Z" fill="#107DAE"/>
<path d="M331.168 362.934C331.361 363.25 331.614 363.535 331.915 363.775C332.394 364.093 332.934 364.331 333.507 364.478C340.277 366.589 347.391 368.39 354.602 367.824C355.369 367.805 356.122 367.635 356.807 367.326C357.155 367.165 357.443 366.917 357.637 366.613C357.831 366.308 357.922 365.96 357.9 365.611C357.82 365.329 357.768 365.042 357.747 364.753C357.747 363.654 359.664 363.483 360.221 362.47C360.34 362.144 360.348 361.793 360.242 361.462C360.136 361.132 359.921 360.837 359.626 360.617C359.089 360.12 358.418 359.759 357.9 359.245C358.784 358.807 359.535 358.183 360.086 357.426C360.347 357.042 360.47 356.597 360.439 356.149C360.409 355.701 360.225 355.272 359.914 354.921C359.377 354.406 358.418 354.131 358.36 353.428C358.303 352.724 359.032 352.364 359.492 351.866C359.933 351.245 360.098 350.498 359.952 349.773C359.806 349.048 359.361 348.399 358.706 347.954C357.339 347.108 355.68 346.725 354.026 346.873C352.391 347.045 350.744 347.114 349.098 347.079C348.898 347.084 348.699 347.051 348.515 346.983C348.33 346.915 348.163 346.813 348.024 346.684C347.679 346.29 347.89 345.724 348.024 345.26C348.727 343.749 349.025 342.112 348.896 340.48C348.766 338.847 348.211 337.264 347.276 335.857C346.942 335.313 346.437 334.869 345.823 334.579C345.21 334.29 344.515 334.167 343.824 334.227C343.389 334.354 342.991 334.566 342.659 334.848C342.327 335.13 342.07 335.475 341.907 335.857C341.607 336.63 341.402 337.43 341.293 338.242C340.334 343.098 337.764 348.28 332.28 350.099C331.34 350.408 330.516 350.236 329.883 351.008C329.455 351.724 329.256 352.532 329.307 353.342C329.041 356.444 329.593 359.559 330.918 362.436L331.168 362.934Z" fill="white"/>
<path d="M324.992 349.996H323.63C322.38 349.996 321.367 350.903 321.367 352.021V361.939C321.367 363.057 322.38 363.963 323.63 363.963H324.992C326.241 363.963 327.254 363.057 327.254 361.939V352.021C327.254 350.903 326.241 349.996 324.992 349.996Z" fill="white"/>
<path d="M680.992 535.276L391.229 435.704V79.4207L680.992 179.01V535.276Z" fill="white"/>
<path opacity="0.42" d="M630.309 423.95L423.984 352.107V162.538L630.309 234.381V423.95Z" fill="#04A9F4"/>
<path d="M439.23 155.571C445.203 155.571 450.046 149.225 450.046 141.398C450.046 133.57 445.203 127.225 439.23 127.225C433.256 127.225 428.414 133.57 428.414 141.398C428.414 149.225 433.256 155.571 439.23 155.571Z" fill="#04A9F4"/>
<path opacity="0.42" d="M517.086 167.633L463.276 148.004C461.97 147.46 460.856 146.606 460.055 145.535C459.254 144.464 458.796 143.217 458.731 141.93C458.649 141.421 458.727 140.902 458.957 140.432C459.186 139.961 459.558 139.556 460.03 139.264C460.502 138.972 461.056 138.803 461.629 138.777C462.203 138.751 462.773 138.868 463.276 139.116L517.163 158.762C518.457 159.318 519.557 160.178 520.344 161.252C521.132 162.325 521.577 163.571 521.631 164.854C521.691 165.211 521.67 165.576 521.571 165.926C521.472 166.276 521.296 166.606 521.053 166.895C520.81 167.184 520.506 167.426 520.158 167.609C519.809 167.792 519.424 167.911 519.023 167.959C518.355 168.042 517.675 167.927 517.086 167.633V167.633Z" fill="#04A9F4"/>
<path opacity="0.42" d="M514.902 180.176L463.125 161.302C462.006 160.944 461.013 160.326 460.248 159.512C459.483 158.698 458.974 157.717 458.771 156.669V156.669C458.771 154.953 460.689 154.335 463.125 155.21L514.902 174.085C516.025 174.441 517.022 175.057 517.79 175.871C518.558 176.686 519.071 177.668 519.275 178.718V178.718C519.275 180.399 517.319 181.051 514.902 180.176Z" fill="#04A9F4"/>
<path opacity="0.42" d="M624.134 459.022L423.984 388.62V383.267L624.134 453.652V459.022Z" fill="#04A9F4"/>
<path opacity="0.42" d="M624.134 469.781L423.984 399.396V394.025L624.134 464.428V469.781Z" fill="#04A9F4"/>
<path opacity="0.42" d="M624.134 480.557L423.984 410.172V404.801L624.134 475.186V480.557Z" fill="#04A9F4"/>
<path opacity="0.42" d="M624.134 491.315L423.984 420.93V415.577L624.134 485.962V491.315Z" fill="#04A9F4"/>
<path opacity="0.42" d="M624.134 502.091L423.984 431.706V426.335L624.134 496.738V502.091Z" fill="#04A9F4"/>
<path d="M432.996 368.648C432.996 368.648 429.928 361.647 426.476 365.216C423.024 368.785 432.805 378.154 432.805 378.154C432.805 378.154 439.842 375.34 439.9 371.633C439.958 367.927 434.703 363.895 432.996 368.648Z" fill="#04A9F4"/>
<path d="M458.041 386.596C457.939 386.574 457.846 386.526 457.773 386.459L455.433 384.485C454.134 384.846 452.743 384.846 451.444 384.485C449.307 383.856 447.431 382.665 446.063 381.067C444.694 379.469 443.896 377.539 443.774 375.528C443.719 374.881 443.807 374.231 444.034 373.615C444.261 372.998 444.622 372.428 445.096 371.937C445.57 371.446 446.148 371.044 446.797 370.753C447.445 370.462 448.151 370.289 448.875 370.244C449.753 370.178 450.636 370.308 451.444 370.621C453.567 371.26 455.425 372.456 456.776 374.054C458.127 375.652 458.909 377.577 459.019 379.578C459.075 380.95 458.54 382.289 457.523 383.319L458.521 385.961C458.575 386.068 458.593 386.186 458.572 386.302C458.552 386.418 458.494 386.526 458.406 386.613C458.348 386.636 458.284 386.646 458.221 386.643C458.158 386.64 458.096 386.624 458.041 386.596V386.596ZM451.444 371.719C450.31 371.283 449.029 371.268 447.882 371.677C446.735 372.085 445.816 372.884 445.327 373.898C445.038 374.474 444.907 375.104 444.943 375.734C445.056 377.427 445.737 379.05 446.896 380.391C448.056 381.731 449.641 382.728 451.444 383.25C452.649 383.628 453.961 383.628 455.165 383.25C455.256 383.224 455.355 383.223 455.447 383.247C455.54 383.272 455.622 383.32 455.682 383.387L456.891 384.417L456.411 383.13C456.365 383.026 456.349 382.912 456.366 382.801C456.383 382.69 456.431 382.584 456.507 382.495C456.99 382.08 457.368 381.577 457.616 381.021C457.864 380.465 457.976 379.867 457.945 379.269C457.84 377.57 457.163 375.94 456.003 374.593C454.842 373.245 453.253 372.243 451.444 371.719V371.719Z" fill="#04A9F4"/>
<path d="M470.334 383.765C470.186 383.715 470.059 383.625 469.97 383.507L465.042 377.193C464.955 377.095 464.897 376.98 464.873 376.857C464.85 376.734 464.861 376.607 464.907 376.489C464.942 376.406 465.01 376.336 465.099 376.295C465.188 376.254 465.29 376.244 465.387 376.266L479.328 380.796C479.469 380.845 479.591 380.93 479.679 381.039C479.768 381.149 479.819 381.279 479.827 381.414C479.864 381.523 479.853 381.641 479.796 381.743C479.739 381.845 479.64 381.924 479.52 381.963L470.507 383.679L470.334 383.765ZM466.844 377.914L470.45 382.512L477.008 381.208L466.844 377.914Z" fill="#04A9F4"/>
<path d="M471.771 391.554H471.656C471.542 391.495 471.445 391.413 471.372 391.315C471.299 391.217 471.252 391.105 471.234 390.988L469.815 383.181C469.777 383.069 469.788 382.949 469.845 382.844C469.902 382.739 470.001 382.657 470.122 382.615L479.135 380.899C479.263 380.886 479.392 380.912 479.503 380.97C479.614 381.029 479.7 381.118 479.749 381.225C479.824 381.333 479.863 381.458 479.863 381.585C479.863 381.712 479.824 381.837 479.749 381.946L472.078 391.537C472.032 391.561 471.98 391.575 471.927 391.578C471.874 391.581 471.821 391.573 471.771 391.554V391.554ZM470.947 383.696L472.04 389.615L477.793 382.323L470.947 383.696Z" fill="#04A9F4"/>
<path d="M768.204 231.219C768.508 230.247 769.827 230.247 770.13 231.219L771.213 234.694C771.279 234.905 771.408 235.09 771.581 235.221C771.753 235.351 771.961 235.422 772.175 235.422H775.68C776.661 235.422 777.068 236.731 776.275 237.333L773.44 239.48C773.267 239.611 773.138 239.795 773.072 240.007C773.006 240.219 773.006 240.448 773.072 240.66L774.155 244.135C774.459 245.107 773.391 245.916 772.596 245.315L769.761 243.168C769.588 243.037 769.38 242.966 769.166 242.966C768.953 242.966 768.744 243.037 768.571 243.168L765.737 245.315C764.943 245.916 763.876 245.107 764.178 244.135L765.262 240.66C765.328 240.448 765.328 240.219 765.261 240.007C765.195 239.795 765.066 239.611 764.893 239.48L762.059 237.334C761.267 236.732 761.675 235.423 762.655 235.423H766.159C766.372 235.423 766.581 235.353 766.754 235.222C766.927 235.091 767.055 234.907 767.122 234.695L768.205 231.22L768.204 231.219Z" fill="#FDDC93"/>
<path d="M99.4344 297.414C99.9444 295.94 102.16 295.94 102.668 297.414L104.487 302.681C104.598 303.002 104.814 303.282 105.104 303.48C105.394 303.678 105.743 303.785 106.102 303.785H111.987C113.635 303.785 114.318 305.769 112.987 306.681L108.227 309.936C107.936 310.134 107.72 310.414 107.609 310.735C107.497 311.057 107.497 311.403 107.608 311.724L109.427 316.992C109.937 318.465 108.144 319.692 106.809 318.78L102.049 315.526C101.759 315.328 101.409 315.221 101.05 315.221C100.691 315.221 100.342 315.328 100.052 315.526L95.2915 318.78C93.9587 319.692 92.1669 318.465 92.6752 316.992L94.4942 311.724C94.605 311.403 94.6048 311.057 94.4937 310.735C94.3825 310.414 94.1661 310.134 93.8754 309.936L89.1171 306.683C87.786 305.771 88.4711 303.787 90.1167 303.787H96.0004C96.3592 303.787 96.7088 303.68 96.9992 303.482C97.2896 303.284 97.5059 303.004 97.6171 302.683L99.4361 297.416L99.4344 297.414Z" fill="#FDDC93"/>
<path d="M74.0204 377.105C74.5304 375.632 76.7455 375.632 77.2538 377.105L79.0728 382.372C79.1839 382.693 79.3999 382.973 79.69 383.171C79.98 383.369 80.3293 383.476 80.6878 383.476H86.5732C88.2205 383.476 88.9039 385.46 87.5728 386.372L82.8128 389.627C82.5221 389.825 82.3057 390.105 82.1945 390.427C82.0834 390.748 82.0832 391.094 82.194 391.416L84.013 396.683C84.523 398.156 82.7295 399.384 81.395 398.472L76.635 395.217C76.3446 395.019 75.995 394.912 75.6362 394.912C75.2774 394.912 74.9278 395.019 74.6375 395.217L69.8775 398.472C68.5447 399.384 66.7529 398.156 67.2612 396.683L69.0802 391.416C69.191 391.094 69.1908 390.748 69.0796 390.427C68.9684 390.105 68.752 389.825 68.4614 389.627L63.7031 386.374C62.372 385.462 63.0571 383.478 64.7027 383.478H70.5864C70.9451 383.478 71.2948 383.371 71.5852 383.173C71.8756 382.975 72.0918 382.695 72.2031 382.374L74.0221 377.107L74.0204 377.105Z" fill="#FDDC93"/>
<path d="M841.897 450C842.197 449.079 843.5 449.079 843.799 450L844.869 453.292C844.934 453.492 845.061 453.667 845.232 453.791C845.402 453.915 845.608 453.981 845.819 453.982H849.281C850.25 453.982 850.652 455.222 849.869 455.792L847.069 457.826C846.898 457.95 846.77 458.125 846.705 458.325C846.64 458.526 846.639 458.743 846.705 458.944L847.775 462.236C848.075 463.157 847.02 463.924 846.235 463.354L843.435 461.32C843.264 461.196 843.058 461.129 842.847 461.129C842.636 461.129 842.43 461.196 842.26 461.32L839.46 463.354C838.676 463.924 837.622 463.157 837.921 462.236L838.991 458.944C839.056 458.743 839.056 458.526 838.99 458.325C838.925 458.125 838.798 457.95 838.627 457.826L835.828 455.793C835.045 455.223 835.448 453.983 836.416 453.983H839.877C840.088 453.983 840.293 453.916 840.464 453.792C840.635 453.668 840.762 453.493 840.828 453.293L841.898 450.001L841.897 450Z" fill="#FDDC93"/>
<path d="M251.434 253.414C251.944 251.94 254.16 251.94 254.668 253.414L256.487 258.681C256.598 259.002 256.814 259.282 257.104 259.48C257.394 259.678 257.743 259.785 258.102 259.785H263.987C265.635 259.785 266.318 261.769 264.987 262.681L260.227 265.936C259.936 266.134 259.72 266.414 259.609 266.735C259.497 267.057 259.497 267.403 259.608 267.724L261.427 272.992C261.937 274.465 260.144 275.692 258.809 274.78L254.049 271.526C253.759 271.328 253.409 271.221 253.05 271.221C252.691 271.221 252.342 271.328 252.052 271.526L247.292 274.78C245.959 275.692 244.167 274.465 244.675 272.992L246.494 267.724C246.605 267.403 246.605 267.057 246.494 266.735C246.382 266.414 246.166 266.134 245.875 265.936L241.117 262.683C239.786 261.771 240.471 259.787 242.117 259.787H248C248.359 259.787 248.709 259.68 248.999 259.482C249.29 259.284 249.506 259.004 249.617 258.683L251.436 253.416L251.434 253.414Z" fill="#FDDC93"/>
<path d="M574.897 113C575.197 112.079 576.5 112.079 576.799 113L577.869 116.292C577.934 116.492 578.061 116.667 578.232 116.791C578.402 116.915 578.608 116.981 578.819 116.982H582.281C583.25 116.982 583.652 118.222 582.869 118.792L580.069 120.826C579.898 120.95 579.77 121.125 579.705 121.325C579.64 121.526 579.639 121.743 579.705 121.944L580.775 125.236C581.075 126.157 580.02 126.924 579.235 126.354L576.435 124.32C576.264 124.196 576.058 124.129 575.847 124.129C575.636 124.129 575.43 124.196 575.26 124.32L572.46 126.354C571.676 126.924 570.622 126.157 570.921 125.236L571.991 121.944C572.056 121.743 572.056 121.526 571.99 121.325C571.925 121.125 571.798 120.95 571.627 120.826L568.828 118.793C568.045 118.223 568.448 116.983 569.416 116.983H572.877C573.088 116.983 573.293 116.916 573.464 116.792C573.635 116.668 573.762 116.493 573.828 116.293L574.898 113.001L574.897 113Z" fill="#FDDC93"/>
<path d="M778.434 341.414C778.944 339.94 781.16 339.94 781.668 341.414L783.487 346.681C783.598 347.002 783.814 347.282 784.104 347.48C784.394 347.678 784.743 347.785 785.102 347.785H790.987C792.635 347.785 793.318 349.769 791.987 350.681L787.227 353.936C786.936 354.134 786.72 354.414 786.609 354.735C786.497 355.057 786.497 355.403 786.608 355.724L788.427 360.992C788.937 362.465 787.144 363.692 785.809 362.78L781.049 359.526C780.759 359.328 780.409 359.221 780.05 359.221C779.691 359.221 779.342 359.328 779.052 359.526L774.292 362.78C772.959 363.692 771.167 362.465 771.675 360.992L773.494 355.724C773.605 355.403 773.605 355.057 773.494 354.735C773.382 354.414 773.166 354.134 772.875 353.936L768.117 350.683C766.786 349.771 767.471 347.787 769.117 347.787H775C775.359 347.787 775.709 347.68 775.999 347.482C776.29 347.284 776.506 347.004 776.617 346.683L778.436 341.416L778.434 341.414Z" fill="#FDDC93"/>
<path d="M552.773 345.099L563.554 322.904L576.421 326.383L579.91 289.237L598.388 251.199L587.659 377.708L571.529 373.347L573.63 350.738L552.773 345.099Z" fill="#3D3D3D"/>
<path d="M533.172 362.979L589.189 248.713L573.666 244.516L536.58 318.118L546.258 237.107L534.326 233.881L501.028 308.507L502.003 270.663L480.699 318.487L480.989 348.872L496.266 353.002L526.211 286.101L517.855 358.838L533.172 362.979Z" fill="#04A9F4"/>
<path d="M459.337 298.594L468.899 301.179C471.795 301.962 474.556 301.988 477.181 301.257L483.93 286.105L502.794 243.76C502.736 241.884 502.578 240.083 502.32 238.356C500.976 229.241 496.887 223.759 490.052 221.912L466.012 215.413L433.41 336.009L448.146 339.992L459.337 298.594ZM485.903 250.562C486.506 253.834 486.151 257.897 484.839 262.754C483.516 267.647 481.857 271.363 479.863 273.903C477.665 276.729 474.773 277.657 471.189 276.688L465.663 275.194L474.422 242.795L479.988 244.3C483.329 245.203 485.301 247.291 485.903 250.562Z" fill="#3D3D3D"/>
<path fill-rule="evenodd" clip-rule="evenodd" d="M809.878 477.543C809.596 476.431 809.063 475.378 808.317 474.454C807.571 473.53 806.627 472.756 805.549 472.184C804.471 471.612 803.283 471.254 802.065 471.134C800.846 471.015 799.625 471.136 798.482 471.491C795.141 472.525 792.246 474.475 789.873 476.509C787.434 478.592 785.101 481.135 782.913 483.88C778.542 489.353 774.31 496.172 770.526 503.121C765.927 511.62 761.873 520.379 758.386 529.355C755.49 526.47 753.473 522.934 752.555 519.133C751.137 513.203 752.222 506.484 754.413 497.868C754.799 496.347 754.686 494.735 754.087 493.236C753.488 491.737 752.43 490.419 751.047 489.447C749.664 488.476 748.019 487.895 746.318 487.779C744.617 487.662 742.938 488.015 741.493 488.792C734.769 492.401 728.935 497.237 724.325 503.022C719.716 508.807 716.421 515.427 714.632 522.503C712.38 531.358 712.542 540.681 715.104 549.647C717.665 558.613 722.546 566.945 729.315 573.904C736.084 580.863 744.531 586.234 753.909 589.543C763.287 592.852 773.307 593.996 783.079 592.874C792.852 591.751 802.077 588.397 809.937 583.108C817.797 577.819 824.049 570.758 828.14 562.552C832.23 554.346 834.033 545.246 833.389 536.06C832.744 526.874 829.672 517.885 824.445 509.889C820.641 504.081 818.161 500.223 816.02 495.731C813.91 491.296 812.034 486.011 809.878 477.543ZM782.988 573.631C778.653 575.96 773.617 577.016 768.518 576.666C763.419 576.315 758.484 574.574 754.338 571.661C750.191 568.749 747.018 564.796 745.22 560.302C743.422 555.808 743.079 550.974 744.235 546.412C744.235 546.412 750.622 552.131 764.204 555.586C766.161 547.893 776.219 525.88 783.482 523.632C785.715 532.39 787.538 535.254 791.293 541.008C793.087 543.743 794.295 546.758 794.847 549.879C795.398 553.001 795.284 556.168 794.509 559.198C793.742 562.23 792.33 565.066 790.354 567.545C788.378 570.024 785.877 572.095 782.994 573.641L782.988 573.631Z" fill="#FFAC60"/>
<path fill-rule="evenodd" clip-rule="evenodd" d="M793.829 523.373C793.53 522.668 793.028 521.984 792.354 521.369C791.681 520.753 790.852 520.219 789.923 519.802C788.995 519.385 787.987 519.095 786.967 518.951C785.948 518.807 784.94 518.813 784.01 518.967C781.293 519.417 778.998 520.46 777.143 521.584C775.236 522.736 773.443 524.179 771.782 525.755C768.463 528.898 765.337 532.883 762.591 536.975C759.256 541.981 756.39 547.18 754.006 552.545C751.434 550.59 749.555 548.282 748.574 545.872C747.055 542.114 747.571 538.01 748.898 532.794C749.131 531.873 748.945 530.867 748.361 529.903C747.777 528.939 746.822 528.061 745.617 527.379C744.412 526.697 743.011 526.243 741.591 526.073C740.171 525.903 738.796 526.025 737.639 526.424C732.258 528.276 727.686 530.94 724.187 534.263C720.688 537.585 718.33 541.501 717.249 545.786C715.886 551.147 716.556 556.938 719.199 562.644C721.842 568.35 726.377 573.797 732.402 578.5C738.427 583.203 745.756 587.019 753.74 589.609C761.724 592.199 770.117 593.483 778.175 593.348C786.232 593.213 793.707 591.662 799.936 588.834C806.164 586.005 810.955 581.986 813.884 577.132C816.813 572.279 817.79 566.74 816.727 561.007C815.664 555.274 812.595 549.524 807.792 544.266C804.297 540.446 802.014 537.912 799.977 535.004C797.969 532.132 796.106 528.748 793.829 523.373ZM776.994 581.411C773.525 582.607 769.401 582.972 765.142 582.462C760.884 581.952 756.683 580.589 753.07 578.546C749.456 576.502 746.593 573.869 744.84 570.979C743.088 568.089 742.526 565.072 743.224 562.31C743.224 562.31 748.861 566.223 760.347 569.144C761.532 564.486 768.629 551.414 774.536 550.437C776.894 555.996 778.574 557.876 782.025 561.66C783.673 563.458 784.849 565.397 785.487 567.364C786.125 569.331 786.211 571.288 785.741 573.123C785.278 574.959 784.267 576.637 782.767 578.06C781.267 579.484 779.307 580.625 777 581.417L776.994 581.411Z" fill="#F8A355"/>
<path fill-rule="evenodd" clip-rule="evenodd" d="M142.047 487.521C141.82 487.069 141.496 486.669 141.097 486.348C140.698 486.028 140.233 485.793 139.734 485.66C139.235 485.527 138.712 485.499 138.201 485.578C137.69 485.656 137.202 485.84 136.77 486.116C135.505 486.922 134.515 488.077 133.748 489.213C132.959 490.377 132.259 491.729 131.639 493.153C130.4 495.994 129.353 499.404 128.503 502.823C127.474 507 126.696 511.232 126.171 515.497C124.694 514.556 123.512 513.238 122.753 511.688C121.575 509.269 121.343 506.239 121.373 502.269C121.378 501.568 121.169 500.881 120.773 500.295C120.377 499.709 119.811 499.25 119.146 498.977C118.482 498.704 117.749 498.628 117.041 498.759C116.333 498.891 115.68 499.223 115.167 499.715C112.776 502 110.872 504.721 109.567 507.723C108.261 510.724 107.578 513.947 107.557 517.207C107.527 521.288 108.532 525.313 110.484 528.927C112.436 532.541 115.274 535.632 118.748 537.925C122.222 540.219 126.223 541.644 130.398 542.076C134.573 542.507 138.792 541.931 142.683 540.399C146.573 538.866 150.014 536.425 152.701 533.291C155.388 530.156 157.239 526.426 158.088 522.429C158.937 518.433 158.76 514.295 157.571 510.38C156.382 506.466 154.218 502.897 151.272 499.988C149.128 497.877 147.724 496.469 146.395 494.751C145.084 493.053 143.783 490.962 142.047 487.521ZM140.707 532.064C139.166 533.538 137.21 534.535 135.086 534.928C132.961 535.322 130.765 535.095 128.773 534.276C126.781 533.456 125.083 532.082 123.894 530.325C122.705 528.569 122.078 526.51 122.092 524.407C122.092 524.407 125.284 526.204 131.196 526.249C131.223 522.704 133.127 512.082 135.875 510.331C137.672 513.889 138.707 514.936 140.825 517.03C141.835 518.024 142.633 519.202 143.174 520.496C143.714 521.791 143.986 523.176 143.974 524.573C143.965 525.97 143.672 527.351 143.112 528.637C142.552 529.924 141.736 531.089 140.711 532.068L140.707 532.064Z" fill="#FFAC60"/>
<path fill-rule="evenodd" clip-rule="evenodd" d="M140.091 509.111C139.897 508.837 139.622 508.595 139.285 508.4C138.947 508.205 138.554 508.062 138.131 507.981C137.709 507.899 137.267 507.881 136.835 507.928C136.402 507.975 135.99 508.085 135.625 508.251C134.557 508.737 133.722 509.434 133.075 510.121C132.41 510.824 131.821 511.642 131.299 512.503C130.256 514.221 129.377 516.283 128.664 518.352C127.802 520.879 127.151 523.44 126.715 526.022C125.464 525.449 124.462 524.649 123.818 523.709C122.817 522.242 122.615 520.407 122.633 518.003C122.636 517.579 122.459 517.163 122.122 516.807C121.786 516.452 121.307 516.173 120.744 516.006C120.182 515.84 119.562 515.792 118.964 515.871C118.365 515.949 117.814 516.149 117.38 516.446C115.362 517.825 113.758 519.469 112.659 521.284C111.56 523.099 110.988 525.05 110.977 527.023C110.958 529.494 111.816 531.933 113.473 534.125C115.131 536.317 117.537 538.193 120.478 539.588C123.42 540.983 126.807 541.853 130.338 542.122C133.869 542.391 137.437 542.05 140.724 541.129C144.011 540.208 146.917 538.736 149.184 536.844C151.451 534.951 153.008 532.695 153.719 530.277C154.43 527.859 154.273 525.353 153.26 522.981C152.248 520.608 150.411 518.443 147.914 516.677C146.098 515.395 144.908 514.54 143.78 513.497C142.669 512.467 141.565 511.198 140.091 509.111ZM139.038 536.079C137.738 536.969 136.085 537.569 134.289 537.803C132.494 538.038 130.636 537.896 128.95 537.396C127.263 536.897 125.825 536.061 124.816 534.996C123.808 533.93 123.273 532.682 123.281 531.409C123.281 531.409 125.984 532.503 130.984 532.541C131 530.394 132.591 523.967 134.912 522.911C136.438 525.069 137.316 525.705 139.11 526.976C139.967 527.58 140.644 528.295 141.103 529.079C141.562 529.864 141.795 530.704 141.787 531.549C141.782 532.395 141.537 533.231 141.066 534.009C140.595 534.786 139.907 535.491 139.042 536.081L139.038 536.079Z" fill="#F8A355"/>
<defs>
<linearGradient id="paint0_linear" x1="334.983" y1="333.181" x2="255.635" y2="447.713" gradientUnits="userSpaceOnUse">
<stop offset="0.01"/>
<stop offset="0.08" stop-opacity="0.69"/>
<stop offset="0.21" stop-opacity="0.32"/>
<stop offset="1" stop-opacity="0"/>
</linearGradient>
</defs>
</svg>
