<svg width="361" height="361" viewBox="0 0 361 361" fill="none" xmlns="http://www.w3.org/2000/svg">
<g clip-path="url(#clip0)">
<path d="M229.177 81.1878H131.903C129.686 81.1906 127.561 82.0939 125.994 83.6997C124.426 85.3055 123.545 87.4826 123.542 89.7535V311.233L122.427 311.582L98.5643 319.068C97.4333 319.422 96.2118 319.301 95.1678 318.732C94.1238 318.164 93.3427 317.194 92.9959 316.036L22.0149 78.5096C21.6695 77.351 21.7872 76.0993 22.3422 75.0296C22.8972 73.9599 23.8441 73.1597 24.9748 72.8049L61.7473 61.2697L168.352 27.8407L205.125 16.3056C205.684 16.1292 206.272 16.0675 206.855 16.1242C207.438 16.1808 208.004 16.3547 208.522 16.6358C209.039 16.9169 209.497 17.2998 209.87 17.7624C210.242 18.2251 210.522 18.7585 210.693 19.3321L228.837 80.0457L229.177 81.1878Z" fill="#F2F2F2"/>
<path d="M250.405 80.0453L228.537 6.87149C228.173 5.65228 227.579 4.51846 226.787 3.53482C225.995 2.55118 225.022 1.737 223.923 1.13881C222.824 0.540611 221.621 0.170119 220.382 0.048516C219.143 -0.0730874 217.893 0.0565802 216.703 0.430096L165.004 16.6421L58.4043 50.0768L6.70435 66.2945C4.30264 67.05 2.29166 68.7509 1.11281 71.0238C-0.0660358 73.2967 -0.31644 75.9559 0.416575 78.4178L75.1544 328.496C75.7498 330.483 76.9514 332.222 78.5826 333.459C80.2138 334.695 82.1889 335.363 84.218 335.365C85.1572 335.366 86.091 335.221 86.9882 334.937L122.428 323.825L123.543 323.471V322.277L122.428 322.625L86.6594 333.846C84.5395 334.508 82.2498 334.282 80.2926 333.217C78.3353 332.152 76.8704 330.335 76.2191 328.165L1.48703 78.0809C1.16434 77.0056 1.05188 75.8756 1.15607 74.7556C1.26027 73.6357 1.57907 72.5479 2.09424 71.5543C2.60941 70.5608 3.31083 69.6812 4.15832 68.9658C5.0058 68.2504 5.98271 67.7133 7.03312 67.3852L58.7331 51.1675L165.333 17.7385L217.033 1.5208C217.829 1.27171 218.658 1.14471 219.491 1.14391C221.278 1.14802 223.018 1.73846 224.454 2.82874C225.89 3.91902 226.948 5.45184 227.473 7.2027L249.24 80.0453L249.585 81.1874H250.745L250.405 80.0453Z" fill="#3F3D56"/>
<path d="M68.3832 72.9915C67.3089 72.9907 66.263 72.6372 65.3992 71.9829C64.5353 71.3286 63.8988 70.4079 63.5832 69.3558L56.4035 45.3309C56.2106 44.6856 56.1436 44.0076 56.2065 43.3357C56.2693 42.6639 56.4608 42.0113 56.7699 41.4152C57.0789 40.8192 57.4996 40.2914 58.0079 39.8619C58.5161 39.4324 59.1019 39.1097 59.7319 38.9122L157.802 8.15356C159.075 7.75584 160.449 7.89149 161.624 8.53071C162.798 9.16994 163.677 10.2605 164.068 11.5631L171.248 35.5883C171.636 36.8916 171.503 38.2994 170.879 39.5028C170.255 40.7062 169.191 41.6068 167.92 42.0072L69.8489 72.7659C69.374 72.9152 68.88 72.9913 68.3832 72.9915V72.9915Z" fill="#03A9F4"/>
<path d="M105.994 25.6712C112.151 25.6712 117.142 20.5578 117.142 14.2503C117.142 7.94266 112.151 2.82935 105.994 2.82935C99.8369 2.82935 94.8457 7.94266 94.8457 14.2503C94.8457 20.5578 99.8369 25.6712 105.994 25.6712Z" fill="#03A9F4"/>
<path d="M105.995 21.4823C109.894 21.4823 113.054 18.2444 113.054 14.2503C113.054 10.2561 109.894 7.01819 105.995 7.01819C102.096 7.01819 98.9355 10.2561 98.9355 14.2503C98.9355 18.2444 102.096 21.4823 105.995 21.4823Z" fill="white"/>
<path d="M335.917 332.448H147.511C146.255 332.446 145.051 331.934 144.163 331.024C143.275 330.114 142.775 328.881 142.773 327.594V96.3204C142.775 95.0336 143.274 93.7998 144.163 92.8898C145.051 91.9798 146.255 91.468 147.511 91.4666H335.917C337.173 91.468 338.377 91.9799 339.265 92.8899C340.153 93.7998 340.653 95.0336 340.655 96.3204V327.594C340.653 328.881 340.153 330.114 339.265 331.024C338.377 331.934 337.173 332.446 335.917 332.448V332.448Z" fill="#E6E6E6"/>
<path d="M249.239 80.0457H131.904C129.392 80.0493 126.983 81.0733 125.207 82.893C123.431 84.7128 122.431 87.1799 122.428 89.7534V322.626L123.543 322.277V89.7534C123.545 87.4825 124.427 85.3054 125.994 83.6996C127.562 82.0938 129.687 81.1905 131.904 81.1877H249.585L249.239 80.0457ZM351.524 80.0457H131.904C129.392 80.0493 126.983 81.0733 125.207 82.893C123.431 84.7128 122.431 87.1799 122.428 89.7534V351.292C122.431 353.866 123.431 356.333 125.207 358.153C126.983 359.972 129.392 360.996 131.904 361H351.524C354.036 360.996 356.444 359.972 358.221 358.153C359.997 356.333 360.996 353.866 361 351.292V89.7534C360.996 87.1799 359.997 84.7128 358.221 82.893C356.444 81.0733 354.036 80.0493 351.524 80.0457V80.0457ZM359.885 351.292C359.882 353.563 359.001 355.74 357.433 357.346C355.866 358.952 353.741 359.855 351.524 359.858H131.904C129.687 359.855 127.562 358.952 125.994 357.346C124.427 355.74 123.545 353.563 123.543 351.292V89.7534C123.545 87.4825 124.427 85.3054 125.994 83.6996C127.562 82.0938 129.687 81.1905 131.904 81.1877H351.524C353.741 81.1905 355.866 82.0938 357.433 83.6996C359.001 85.3054 359.882 87.4825 359.885 89.7534V351.292Z" fill="#3F3D56"/>
<path d="M292.996 105.172H190.433C189.103 105.17 187.828 104.628 186.887 103.665C185.947 102.701 185.418 101.395 185.416 100.032V74.9063C185.418 73.5437 185.947 72.2373 186.887 71.2738C187.828 70.3103 189.103 69.7684 190.433 69.7668H292.996C294.327 69.7684 295.602 70.3103 296.542 71.2738C297.483 72.2373 298.012 73.5437 298.013 74.9063V100.032C298.012 101.395 297.483 102.701 296.542 103.665C295.602 104.628 294.327 105.17 292.996 105.172V105.172Z" fill="#03A9F4"/>
<path d="M241.715 71.48C247.872 71.48 252.863 66.3667 252.863 60.0591C252.863 53.7515 247.872 48.6382 241.715 48.6382C235.558 48.6382 230.566 53.7515 230.566 60.0591C230.566 66.3667 235.558 71.48 241.715 71.48Z" fill="#03A9F4"/>
<path d="M241.714 67.0155C245.464 67.0155 248.504 63.901 248.504 60.0591C248.504 56.2171 245.464 53.1027 241.714 53.1027C237.964 53.1027 234.924 56.2171 234.924 60.0591C234.924 63.901 237.964 67.0155 241.714 67.0155Z" fill="white"/>
<path d="M283.279 233.433L288.199 214.326L302.102 214.408L295.663 185.342L304.095 152.597L327.191 251.354L309.76 251.252L305.818 233.565L283.279 233.433Z" fill="#3D3D3D"/>
<path d="M268.152 251.31L294.042 152.92L277.237 152.822L259.548 216.398L247.568 152.648L234.651 152.572L221.062 216.172L211.885 187.101L203.212 227.851L211.663 250.978L228.201 251.076L240.478 194.041L251.571 251.213L268.152 251.31Z" fill="#04A9F4"/>
<path d="M176.196 217.2L186.529 217.261C189.659 217.279 192.45 216.747 194.9 215.663L197.643 202.742L205.31 166.63C204.749 165.21 204.107 163.866 203.383 162.599C199.585 155.907 193.993 152.539 186.606 152.496L160.627 152.343L160.086 250.96L176.01 251.054L176.196 217.2ZM190.104 175.205C191.589 177.582 192.321 180.757 192.299 184.728C192.277 188.729 191.601 191.899 190.271 194.237C188.813 196.835 186.146 198.123 182.273 198.1L176.301 198.065L176.446 171.571L182.462 171.606C186.072 171.628 188.62 172.827 190.104 175.205Z" fill="#3D3D3D"/>
<path fill-rule="evenodd" clip-rule="evenodd" d="M167.789 305.848C167.59 305.509 167.308 305.209 166.962 304.969C166.616 304.729 166.214 304.554 165.782 304.457C165.351 304.359 164.9 304.341 164.46 304.403C164.019 304.466 163.6 304.607 163.228 304.818C162.143 305.433 161.297 306.311 160.643 307.173C159.97 308.057 159.375 309.082 158.85 310.161C157.8 312.313 156.919 314.893 156.208 317.479C155.348 320.639 154.704 323.839 154.28 327.062C153 326.36 151.972 325.372 151.307 324.206C150.276 322.386 150.056 320.1 150.056 317.102C150.055 316.572 149.871 316.055 149.525 315.615C149.18 315.175 148.688 314.832 148.114 314.629C147.539 314.427 146.907 314.374 146.297 314.477C145.687 314.58 145.126 314.835 144.686 315.209C142.639 316.948 141.016 319.013 139.909 321.287C138.803 323.561 138.235 325.998 138.238 328.459C138.239 331.541 139.132 334.574 140.839 337.292C142.546 340.009 145.014 342.326 148.024 344.038C151.035 345.75 154.495 346.803 158.099 347.105C161.702 347.407 165.337 346.948 168.682 345.769C172.027 344.59 174.979 342.727 177.276 340.345C179.573 337.963 181.144 335.136 181.851 332.114C182.557 329.092 182.377 325.968 181.326 323.019C180.275 320.071 178.386 317.388 175.826 315.209C173.964 313.627 172.743 312.573 171.586 311.282C170.444 310.008 169.308 308.437 167.789 305.848ZM166.924 339.488C165.605 340.609 163.924 341.373 162.095 341.682C160.265 341.992 158.369 341.833 156.646 341.225C154.923 340.618 153.45 339.59 152.413 338.271C151.376 336.951 150.822 335.4 150.82 333.813C150.82 333.813 153.585 335.151 158.683 335.151C158.683 332.475 160.256 324.444 162.615 323.106C164.188 325.783 165.087 326.567 166.927 328.135C167.805 328.88 168.501 329.765 168.976 330.739C169.45 331.714 169.694 332.758 169.692 333.813C169.694 334.868 169.45 335.912 168.976 336.887C168.501 337.861 167.805 338.746 166.927 339.49L166.924 339.488Z" fill="#FFB168"/>
<path fill-rule="evenodd" clip-rule="evenodd" d="M166.239 322.161C166.071 321.955 165.832 321.774 165.54 321.629C165.247 321.483 164.907 321.378 164.542 321.319C164.177 321.26 163.796 321.249 163.424 321.286C163.051 321.324 162.696 321.409 162.382 321.537C161.465 321.91 160.749 322.441 160.196 322.963C159.626 323.498 159.124 324.119 158.679 324.772C157.791 326.075 157.046 327.638 156.445 329.203C155.718 331.116 155.174 333.054 154.814 335.005C153.732 334.58 152.862 333.982 152.301 333.276C151.428 332.174 151.242 330.79 151.242 328.975C151.242 328.654 151.086 328.341 150.793 328.074C150.501 327.808 150.086 327.6 149.6 327.478C149.114 327.355 148.579 327.323 148.063 327.385C147.547 327.448 147.073 327.602 146.701 327.829C144.97 328.881 143.597 330.132 142.661 331.509C141.725 332.885 141.245 334.361 141.248 335.851C141.248 337.717 142.004 339.554 143.447 341.199C144.891 342.844 146.978 344.247 149.524 345.284C152.07 346.32 154.997 346.958 158.044 347.141C161.091 347.324 164.166 347.046 166.994 346.332C169.823 345.618 172.32 344.49 174.262 343.048C176.205 341.606 177.534 339.894 178.131 338.064C178.729 336.234 178.576 334.343 177.687 332.558C176.799 330.772 175.201 329.148 173.036 327.829C171.461 326.871 170.429 326.232 169.45 325.451C168.485 324.68 167.524 323.728 166.239 322.161ZM165.508 342.529C164.392 343.208 162.971 343.67 161.423 343.857C159.876 344.045 158.273 343.948 156.816 343.581C155.358 343.213 154.112 342.591 153.235 341.792C152.359 340.993 151.89 340.054 151.888 339.093C151.888 339.093 154.227 339.903 158.539 339.903C158.539 338.282 159.869 333.42 161.864 332.61C163.194 334.231 163.954 334.705 165.511 335.655C166.253 336.106 166.842 336.642 167.243 337.232C167.644 337.822 167.85 338.454 167.849 339.093C167.85 339.731 167.644 340.364 167.243 340.954C166.842 341.544 166.253 342.079 165.511 342.53L165.508 342.529Z" fill="#F8A355"/>
</g>
<defs>
<clipPath id="clip0">
<rect width="361" height="361" fill="white"/>
</clipPath>
</defs>
</svg>
